# xmcd
#
# Track frame offsets:
#	150
#	13111
#	26936
#	39745
#	53093
#	65429
#	78928
#	91944
#	108819
#	124156
#	136862
#	151039
#	164313
#	177633
#	188889
#	204479
#	218766
#	234930
#
# Disc length: 3351 seconds
#
# Revision: 1
# Processed by: cddbd v1.5.2PL0 Copyright (c) Steve Scherf et al.
# Submitted via: audiograbber 1.83.01
#
DISCID=eb0d1512
DTITLE=Bruce Low - Unvergessene Schlager
DYEAR=1949
DGENRE=Deutsche Schlager
TTITLE0=Negerwiegenlied  1949
TTITLE1=Heimweh nach Virginia  1949
TTITLE2=Riders in the Sky  1949
TTITLE3=Leise rauscht es am Missouri  1950
TTITLE4=Du kleiner Fisch im grossen Meer  1950
TTITLE5=Das Lied der Taube  1950
TTITLE6=Die grosse Filmschau im Himmel  1950
TTITLE7=Tabak und Rum  1952
TTITLE8=Rot ist der Mond von Virginia  1952
TTITLE9=Nanni hat Heimweh  1952
TTITLE10=Ein Mensch wie Du und Ich  1952
TTITLE11=Wenn Mademoiselle dich küsst  1952
TTITLE12=Um die Ecke pfeift der Wind  1952
TTITLE13=Tennessee Waltz  1952
TTITLE14=Ol' Man River  1952
TTITLE15=Soviel Wind und keine Segel  1953
TTITLE16=Es singt das Meer  1953
TTITLE17=Sag warum willst Du von mir gehen  1953
EXTD=1949 - 1953
EXTT0=
EXTT1=
EXTT2=
EXTT3=
EXTT4=
EXTT5=
EXTT6=
EXTT7=
EXTT8=
EXTT9=
EXTT10=
EXTT11=
EXTT12=
EXTT13=
EXTT14=
EXTT15=
EXTT16=
EXTT17=
PLAYORDER=
